<?xml version="1.0" encoding="UTF-8"?>
<svg id="Play" xmlns="http://www.w3.org/2000/svg" viewBox="0 0 100 100">
  <defs>
    <style>
      .cls-1 {
        fill: #0096ff;
      }

      .cls-2 {
        fill: #ff2600;
      }

      .cls-3 {
        fill: #941100;
      }
    </style>
  </defs>
  <g id="Hotcue_1_Cuepoint_Hot" data-name="Hotcue 1 Cuepoint Hot">
    <g id="Background">
      <rect class="cls-3" width="100" height="100"/>
    </g>
    <path class="cls-1" d="M80,30.44v39.15c0,6.87-3.58,10.41-10.54,10.41H30.54c-6.94,0-10.54-3.55-10.54-10.41V30.44c0-6.86,3.61-10.44,10.54-10.44h38.91c6.96,0,10.54,3.58,10.54,10.44Z"/>
    <path class="cls-2" d="M47.64,35.65l-5.79,3.9c-.88.64-1.29,1.25-1.29,2.26,0,1.24.96,2.33,2.22,2.33.6,0,.98-.08,1.84-.65l3.98-2.63h.25v21.39c0,2.28,1.21,3.52,3.2,3.52s3.26-1.24,3.26-3.52v-24.54c0-2.2-1.35-3.52-3.53-3.52-1.47,0-2.53.37-4.14,1.45Z"/>
  </g>
</svg>