<?xml version="1.0" encoding="UTF-8"?>
<svg id="Play" xmlns="http://www.w3.org/2000/svg" viewBox="0 0 100 100">
  <defs>
    <style>
      .cls-1 {
        fill: #0096ff;
      }
    </style>
  </defs>
  <g id="Hotcue_3_Hotcue_Cold" data-name="Hotcue 3 Hotcue Cold">
    <g id="Background">
      <rect width="100" height="100"/>
    </g>
    <path class="cls-1" d="M80,30.44v39.15c0,6.87-3.58,10.41-10.54,10.41H30.54c-6.94,0-10.54-3.55-10.54-10.41V30.44c0-6.86,3.61-10.44,10.54-10.44h38.91c6.96,0,10.54,3.58,10.54,10.44ZM39.77,40.49c-.15.51-.2.93-.2,1.45,0,1.54,1.09,2.57,2.72,2.57,1.28,0,2.1-.59,2.64-1.79.75-2.25,2.68-3.63,5.42-3.63,2.97,0,4.82,1.46,4.82,3.84s-2.07,4.24-4.93,4.24h-1.76c-1.51,0-2.57.96-2.57,2.44,0,1.41,1.07,2.4,2.57,2.4h1.9c3.39,0,5.7,1.8,5.7,4.47s-2.31,4.35-5.74,4.35-5.11-1.54-5.97-3.63c-.54-1.19-1.36-1.76-2.63-1.76-1.65,0-2.75,1.05-2.75,2.62,0,.53.06.88.18,1.39,1.06,3.77,5.49,6.35,11.04,6.35,7.36,0,11.92-3.69,11.92-9.03,0-3.88-2.92-6.98-6.88-7.35v-.31c3.3-.47,5.87-3.48,5.87-6.86,0-4.73-4.39-8.03-10.7-8.03-5.56,0-9.72,2.44-10.67,6.28Z"/>
  </g>
</svg>