<?xml version="1.0" encoding="UTF-8"?>
<svg id="Play" xmlns="http://www.w3.org/2000/svg" viewBox="0 0 100 100">
  <defs>
    <style>
      .cls-1 {
        fill: #fff;
      }
    </style>
  </defs>
  <g id="Cue_Normal_Cold" data-name="Cue Normal Cold">
    <g id="Background">
      <rect width="100" height="100"/>
    </g>
    <g>
      <path class="cls-1" d="M18.9,63.61c-2-1.26-3.54-3.06-4.63-5.38-1.09-2.33-1.64-5.07-1.64-8.23s.54-5.9,1.64-8.23c1.09-2.33,2.65-4.12,4.67-5.38,2.02-1.26,4.4-1.9,7.13-1.9,2.21,0,4.18.43,5.9,1.29,1.72.86,2.99,2.07,3.79,3.62l-2.67,2.5c-1.55-2.38-3.86-3.57-6.93-3.57-2.81,0-4.98,1.01-6.5,3.04-1.52,2.02-2.28,4.9-2.28,8.64s.75,6.58,2.24,8.61c1.49,2.04,3.6,3.06,6.33,3.06,1.67,0,3.09-.29,4.26-.88s2.14-1.49,2.89-2.69l2.67,2.5c-.83,1.55-2.1,2.76-3.81,3.62-1.71.86-3.71,1.29-6.01,1.29-2.7,0-5.05-.63-7.04-1.9Z"/>
      <path class="cls-1" d="M42.81,62.43c-1.88-2.05-2.82-5.1-2.82-9.15v-18.35h4.74v18.26c0,5.66,2.14,8.49,6.42,8.49s6.38-2.83,6.38-8.49v-18.26h4.74v18.35c0,4.02-.94,7.06-2.82,9.13-1.88,2.07-4.65,3.1-8.29,3.1s-6.45-1.03-8.33-3.08Z"/>
      <path class="cls-1" d="M68.63,34.92h18.74v3.83h-14.04v8.57h12.53v3.83h-12.53v10.08h14.04v3.83h-18.74v-30.15Z"/>
    </g>
  </g>
</svg>