<?xml version="1.0" encoding="UTF-8"?>
<svg id="Play" xmlns="http://www.w3.org/2000/svg" viewBox="0 0 100 100">
  <defs>
    <style>
      .cls-1 {
        fill: #941100;
      }

      .cls-2 {
        fill: #fff;
      }
    </style>
  </defs>
  <g id="Hotcue_2_Unassigned_Hot" data-name="Hotcue 2 Unassigned Hot">
    <g id="Background">
      <rect class="cls-1" width="100" height="100"/>
    </g>
    <g>
      <path class="cls-2" d="M29.77,80h40.45c6.5,0,9.78-3.29,9.78-9.66V29.69c0-6.37-3.28-9.69-9.78-9.69H29.77c-6.46,0-9.77,3.28-9.77,9.69v40.65c0,6.41,3.3,9.66,9.77,9.66ZM29.84,75.91c-3.73,0-5.74-1.97-5.74-5.8V29.91c0-3.83,2.01-5.81,5.74-5.81h40.31c3.66,0,5.74,1.98,5.74,5.81v40.2c0,3.83-2.08,5.8-5.74,5.8H29.84Z"/>
      <path class="cls-2" d="M42.6,64.86h16.93c1.03,0,1.76-.67,1.76-1.71,0-1.09-.73-1.72-1.76-1.72h-13.14v-.21l8.62-9.32c3.1-3.38,4.88-5.9,4.88-9.27,0-4.9-3.83-8.15-9.64-8.15-4.65,0-8.72,2.82-9.62,6.6-.1.45-.13.79-.13,1.17,0,1.05.68,1.72,1.72,1.72.99,0,1.46-.59,1.87-1.38.66-2.51,2.81-4.76,6.32-4.76s5.78,1.99,5.78,5.05c0,2.41-1.71,4.45-3.86,6.75l-10.92,11.88c-.47.52-.7,1.03-.7,1.6,0,1.08.72,1.75,1.9,1.75Z"/>
    </g>
  </g>
</svg>