<?xml version="1.0" encoding="UTF-8"?>
<svg id="Play" xmlns="http://www.w3.org/2000/svg" viewBox="0 0 100 100">
  <defs>
    <style>
      .cls-1 {
        fill: #fff;
      }
    </style>
  </defs>
  <g id="Hotcue_4_Unassigned_Cold" data-name="Hotcue 4 Unassigned Cold">
    <g id="Background">
      <rect width="100" height="100"/>
    </g>
    <g>
      <path class="cls-1" d="M29.77,80h40.45c6.5,0,9.78-3.29,9.78-9.66V29.69c0-6.37-3.28-9.69-9.78-9.69H29.77c-6.46,0-9.77,3.28-9.77,9.69v40.65c0,6.41,3.3,9.66,9.77,9.66ZM29.84,75.91c-3.73,0-5.74-1.97-5.74-5.8V29.91c0-3.83,2.01-5.81,5.74-5.81h40.31c3.66,0,5.74,1.98,5.74,5.81v40.2c0,3.83-2.08,5.8-5.74,5.8H29.84Z"/>
      <path class="cls-1" d="M54.16,65.51c1.22,0,1.94-.81,1.94-2.15v-4.96h3.07c1.03,0,1.74-.7,1.74-1.7s-.69-1.74-1.74-1.74h-3.07v-17.72c0-1.67-1.25-2.77-3.14-2.77-1.79,0-2.93.64-3.98,2.25-3.28,4.86-8.38,12.41-11.09,16.81-.49.83-.7,1.48-.7,2.27,0,1.57,1.08,2.6,2.81,2.6h12.27v4.96c0,1.31.73,2.15,1.9,2.15ZM52.27,54.97h-11.17v-.19c2.35-4,7.89-12.23,10.96-16.78h.21v16.97Z"/>
    </g>
  </g>
</svg>