<?xml version="1.0" encoding="UTF-8"?>
<svg id="Play" xmlns="http://www.w3.org/2000/svg" viewBox="0 0 100 100">
  <defs>
    <style>
      .cls-1 {
        fill: #fff;
      }
    </style>
  </defs>
  <g id="Hotcue_3_Unassigned_Cold" data-name="Hotcue 3 Unassigned Cold">
    <g id="Background">
      <rect width="100" height="100"/>
    </g>
    <g>
      <path class="cls-1" d="M29.77,80h40.45c6.5,0,9.78-3.29,9.78-9.66V29.69c0-6.37-3.28-9.69-9.78-9.69H29.77c-6.46,0-9.77,3.28-9.77,9.69v40.65c0,6.41,3.3,9.66,9.77,9.66ZM29.84,75.91c-3.73,0-5.74-1.97-5.74-5.8V29.91c0-3.83,2.01-5.81,5.74-5.81h40.31c3.66,0,5.74,1.98,5.74,5.81v40.2c0,3.83-2.08,5.8-5.74,5.8H29.84Z"/>
      <path class="cls-1" d="M50.18,65.51c6.62,0,10.92-3.66,10.92-8.74,0-3.83-2.97-6.95-6.94-7.32v-.23c3.33-.55,5.88-3.58,5.88-7.04,0-4.48-4.07-7.7-9.71-7.7-5.03,0-9.02,2.48-9.72,6.22-.1.42-.15.76-.15,1.18,0,1.04.73,1.76,1.78,1.76.98,0,1.55-.47,1.82-1.43.62-2.67,2.95-4.42,6.2-4.42,3.59,0,5.9,1.9,5.9,4.85s-2.55,5.22-5.9,5.22h-2.35c-.96,0-1.67.66-1.67,1.64s.71,1.63,1.67,1.63h2.55c3.92,0,6.74,2.29,6.74,5.5s-2.8,5.52-6.98,5.52c-3.66,0-6.03-1.89-6.8-4.42-.33-.96-.89-1.4-1.82-1.4-1.05,0-1.79.74-1.79,1.81,0,.43.03.71.13,1.13.99,3.7,5.11,6.23,10.22,6.23Z"/>
    </g>
  </g>
</svg>