<?xml version="1.0" encoding="UTF-8"?>
<svg id="Play" xmlns="http://www.w3.org/2000/svg" viewBox="0 0 100 100">
  <defs>
    <style>
      .cls-1 {
        fill: #fff;
      }
    </style>
  </defs>
  <g id="Jump_Forward_Normal_Cold" data-name="Jump Forward Normal Cold">
    <g id="Background">
      <rect width="100" height="100"/>
    </g>
    <path class="cls-1" d="M18.9,64.31v-28.64c0-2.15,1.26-3.16,2.72-3.16.66,0,1.33.18,1.99.57l24.06,14.01c1.72,1.01,2.38,1.76,2.38,2.91s-.66,1.9-2.38,2.91l-24.06,14.01c-.66.37-1.33.57-1.99.57-1.47,0-2.72-1.03-2.72-3.18ZM49.94,64.31v-28.64c0-2.15,1.24-3.16,2.72-3.16.64,0,1.33.18,1.99.57l24.04,14.01c1.74,1.01,2.4,1.76,2.4,2.91s-.66,1.9-2.4,2.91l-24.04,14.01c-.66.37-1.35.57-1.99.57-1.49,0-2.72-1.03-2.72-3.18Z"/>
  </g>
</svg>