<?xml version="1.0" encoding="UTF-8"?>
<svg id="Play" xmlns="http://www.w3.org/2000/svg" viewBox="0 0 100 100">
  <defs>
    <style>
      .cls-1 {
        fill: #1e8dfe;
      }
    </style>
  </defs>
  <g id="Load_Pressed_Cold" data-name="Load Pressed Cold">
    <g id="Background">
      <rect class="cls-1" width="100" height="100"/>
    </g>
    <g>
      <path d="M69.47,41.16l8.52,10.42c1.33,1.57,1.66,2.86,1.66,5.58v14.74c0,5.32-2.78,8.1-8.19,8.1H28.54c-5.38,0-8.18-2.78-8.18-8.1v-14.74c0-2.73.35-4.01,1.66-5.58l8.53-10.41c2.95-3.57,4.49-4.71,8.72-4.71h3.73v4.1h-3.93c-1.7,0-2.98.59-4.1,2l-9.08,11.34c-.42.52-.25,1.22.56,1.22h16.16c1.32,0,1.92.93,1.92,1.92v.1c0,2.71,2.11,5.6,5.47,5.6s5.5-2.89,5.5-5.6v-.1c0-.98.58-1.92,1.9-1.92h16.17c.82,0,.97-.69.56-1.22l-9.1-11.34c-1.12-1.41-2.39-2-4.09-2h-3.93v-4.1h3.73c4.23,0,5.79,1.13,8.73,4.7ZM25.18,59.45v12.02c0,2.43,1.26,3.65,3.58,3.65h42.48c2.3,0,3.58-1.22,3.58-3.65v-12.02h-15.12c-.77,4.45-4.66,7.78-9.7,7.78s-8.92-3.31-9.7-7.78h-15.12Z"/>
      <path d="M50,53.79c1.27,0,2.32-1.03,2.32-2.25v-21.75l-.2-3.69,1.33,1.58,3.55,3.8c.4.44.98.68,1.54.68,1.15,0,2.07-.83,2.07-2,0-.6-.23-1.04-.65-1.46l-8.21-7.9c-.59-.58-1.13-.79-1.75-.79s-1.15.21-1.75.79l-8.21,7.9c-.42.42-.65.87-.65,1.46,0,1.17.9,2,2.05,2,.56,0,1.16-.24,1.56-.68l3.55-3.8,1.33-1.6-.18,3.72v21.75c0,1.22,1.03,2.25,2.29,2.25Z"/>
    </g>
  </g>
</svg>