<?xml version="1.0" encoding="UTF-8"?>
<svg id="Play" xmlns="http://www.w3.org/2000/svg" viewBox="0 0 100 100">
  <defs>
    <style>
      .cls-1 {
        fill: #aef346;
      }
    </style>
  </defs>
  <g id="Loop_Active_Cold" data-name="Loop Active Cold">
    <g id="Background">
      <rect class="cls-1" width="100" height="100"/>
    </g>
    <g>
      <path d="M75.5,48.29c-1.88,0-3.36,1.48-3.36,3.37v1.96c0,4.38-2.92,7.07-7.66,7.07h-18.98v-5.56c0-1.56-.92-2.48-2.44-2.48-.72,0-1.31.24-1.78.64l-10.43,8.78c-1.15,1-1.15,2.56,0,3.52l10.43,8.78c.47.4,1.06.65,1.78.65,1.52,0,2.44-.94,2.44-2.47v-5.28h18.61c9.09,0,14.74-4.85,14.74-12.8v-2.81c0-1.88-1.5-3.37-3.36-3.37Z"/>
      <path d="M24.51,51.74c1.86,0,3.34-1.5,3.34-3.37v-1.96c0-4.38,2.93-7.1,7.65-7.1h18.98v5.57c0,1.53.94,2.47,2.46,2.47.71,0,1.31-.25,1.78-.65l10.41-8.78c1.15-.96,1.16-2.53,0-3.52l-10.41-8.78c-.47-.39-1.07-.64-1.78-.64-1.52,0-2.46.92-2.46,2.48v5.29h-18.61c-9.08,0-14.73,4.84-14.73,12.8v2.81c0,1.87,1.48,3.37,3.37,3.37Z"/>
    </g>
  </g>
</svg>