<?xml version="1.0" encoding="UTF-8"?>
<svg id="Play" xmlns="http://www.w3.org/2000/svg" viewBox="0 0 100 100">
  <defs>
    <style>
      .cls-1 {
        fill: #ff2600;
      }

      .cls-2 {
        fill: #aef346;
      }
    </style>
  </defs>
  <g id="Loop_Control_8_Active_Hot" data-name="Loop Control 8 Active Hot">
    <g id="Background">
      <rect class="cls-2" width="100" height="100"/>
    </g>
    <path class="cls-1" d="M40.22,66.97c-2.39-2.02-3.58-4.79-3.58-8.31,0-2.22.57-4.22,1.7-6,1.13-1.78,2.71-3.07,4.75-3.89-1.52-.67-2.75-1.8-3.69-3.42-.94-1.61-1.42-3.34-1.42-5.19,0-3.07,1.1-5.53,3.31-7.39s5.12-2.78,8.75-2.78,6.54.92,8.72,2.78c2.18,1.85,3.28,4.31,3.28,7.39,0,1.85-.47,3.59-1.39,5.19-.93,1.61-2.15,2.75-3.67,3.42,2,.81,3.57,2.11,4.7,3.89,1.13,1.78,1.69,3.78,1.69,6,0,3.48-1.19,6.24-3.58,8.28-2.39,2.04-5.64,3.06-9.75,3.06s-7.42-1.01-9.81-3.03ZM55.36,63.14c1.3-1.28,1.95-3.01,1.95-5.19s-.65-3.85-1.95-5.11c-1.3-1.26-3.07-1.89-5.33-1.89s-4.05.62-5.36,1.86c-1.32,1.24-1.97,2.95-1.97,5.14s.66,3.92,1.97,5.19c1.31,1.28,3.1,1.92,5.36,1.92s4.04-.64,5.33-1.92ZM54.36,44.97c1.07-1.05,1.61-2.47,1.61-4.25s-.54-3.14-1.61-4.2c-1.07-1.05-2.52-1.58-4.33-1.58s-3.27.53-4.36,1.58c-1.09,1.06-1.64,2.46-1.64,4.2s.54,3.2,1.64,4.25c1.09,1.06,2.55,1.58,4.36,1.58s3.26-.52,4.33-1.58Z"/>
  </g>
</svg>