<?xml version="1.0" encoding="UTF-8"?>
<svg id="Play" xmlns="http://www.w3.org/2000/svg" viewBox="0 0 100 100">
  <defs>
    <style>
      .cls-1 {
        fill: #fff;
      }
    </style>
  </defs>
  <g id="Tempo_Slower_Normal_Cold" data-name="Tempo Slower Normal Cold">
    <g id="Background">
      <rect width="100" height="100"/>
    </g>
    <g>
      <path class="cls-1" d="M41.77,46.52c4.94-.01,9.09-1.81,12.36-5.41-3.34-4.17-6.9-6.09-12.22-6.11-5.33-.01-8.92,1.8-12.36,6.2,3.29,3.59,7.57,5.33,12.22,5.32ZM29.97,57.91c2.8-2.56,5-6.73,5.36-10.11-2.49-.92-5.35-2.61-7.22-4.59-.84,1.29-1.72,2.7-2.51,4.27-1.62,3.22-3.46,4.76-4.67,5.91-.62.6-.98,1.14-.98,1.94,0,1.16,1.17,1.81,3.24,1.81h2.12c1.91,0,3.3.31,4.65.77ZM41.77,61.99c4.14,0,7.1-2,9.53-3.21-2.96-2.66-4.81-6.57-5.07-10.35-1.45.38-2.91.56-4.42.56-1.5.01-2.94-.18-4.34-.53-.3,3.58-2.15,7.62-5.06,10.4,2.38.96,5.26,3.13,9.35,3.13ZM53.53,57.81c1.59-.42,3.14-.71,5.15-.78,1.55-.03,3.08-.28,3.85-.71-1.79-2.7-5.2-10.4-7.06-13.31-1.94,2.03-4.84,3.87-7.05,4.72.34,3.46,2.21,7.33,5.11,10.08Z"/>
      <path class="cls-1" d="M25.05,64.97c3.16,0,6.37-1.32,7.99-3.31-1.94-1.19-4.34-2.34-6.58-2.58-.96.27-1.96.34-3.05.58-1.43.29-2.75.93-2.75,2.37,0,1.89,1.87,2.95,4.39,2.95ZM58.3,65c2.54,0,4.43-1.06,4.43-2.95,0-1.53-1.42-2.56-2.93-2.75-1.04-.07-1.87-.11-2.94-.2-2.18.21-4.77,1.4-6.63,2.55,1.59,2.04,4.91,3.35,8.07,3.35ZM64.44,55.54c2.62-1.18,4.19-2.64,7.64-2.64,4.85,0,7.96-1.74,7.96-4.47,0-6.27-3.33-10.5-8.32-10.5-4.32,0-7.01,2.66-8.08,6.75-.72,2.64-1.74,3.72-2.75,4.5.88,1.5,2.24,4.11,3.56,6.37ZM72.16,46.68c-.92,0-1.66-.75-1.66-1.66s.74-1.64,1.66-1.64,1.64.75,1.64,1.64-.75,1.66-1.64,1.66Z"/>
    </g>
  </g>
</svg>