<?xml version="1.0" encoding="UTF-8"?>
<svg id="Play" xmlns="http://www.w3.org/2000/svg" viewBox="0 0 100 100">
  <defs>
    <style>
      .cls-1 {
        fill: #fffc79;
      }
    </style>
  </defs>
  <g id="Loop_Control_32_Active_Cold" data-name="Loop Control 32 Active Cold">
    <g id="Background">
      <rect class="cls-1" width="100" height="100"/>
    </g>
    <g>
      <path d="M26.58,68.44c-2.2-1.04-3.84-2.46-4.92-4.28l3-3.45c1,1.3,2.34,2.34,4.03,3.14,1.68.8,3.42,1.19,5.19,1.19,2.22,0,4.01-.62,5.36-1.86,1.35-1.24,2.03-2.86,2.03-4.86,0-2.18-.83-3.89-2.5-5.11-1.67-1.22-3.96-1.84-6.89-1.84h-2.44v-4.61h2.39c2.45,0,4.41-.62,5.89-1.86,1.48-1.24,2.22-2.86,2.22-4.86,0-1.63-.54-2.89-1.61-3.78-1.08-.89-2.57-1.33-4.5-1.33-1.82,0-3.51.38-5.08,1.14-1.58.76-2.88,1.83-3.92,3.2l-2.89-3.45c1.22-1.78,2.95-3.2,5.19-4.25,2.24-1.06,4.68-1.58,7.31-1.58,2.29,0,4.31.39,6.05,1.17s3.09,1.88,4.06,3.31c.96,1.42,1.44,3.07,1.44,4.91,0,2.15-.61,4.06-1.83,5.72-1.22,1.66-2.94,2.91-5.17,3.72,2.74.74,4.82,1.94,6.25,3.61,1.42,1.67,2.14,3.74,2.14,6.22,0,2.22-.55,4.2-1.64,5.92-1.09,1.72-2.65,3.06-4.67,4-2.02.94-4.34,1.42-6.97,1.42-2.81,0-5.32-.52-7.53-1.56Z"/>
      <path d="M53.28,64.61c2.59-1.89,5.2-4.13,7.83-6.72,2.63-2.59,4.86-5.37,6.7-8.33s2.75-5.78,2.75-8.45c0-1.89-.54-3.39-1.61-4.5-1.08-1.11-2.56-1.67-4.45-1.67-1.78,0-3.48.44-5.11,1.33s-2.93,2.08-3.89,3.55l-3.22-3.5c1.22-1.96,2.92-3.51,5.08-4.64,2.17-1.13,4.57-1.69,7.2-1.69,3.78,0,6.75.97,8.92,2.92,2.17,1.94,3.25,4.62,3.25,8.03,0,3.71-1.45,7.6-4.36,11.7s-6.58,8.14-11.03,12.14h17v4.67h-25.06v-4.83Z"/>
    </g>
  </g>
</svg>