<?xml version="1.0" encoding="UTF-8"?>
<svg id="Play" xmlns="http://www.w3.org/2000/svg" viewBox="0 0 100 100">
  <defs>
    <style>
      .cls-1 {
        fill: #0096ff;
      }

      .cls-2 {
        fill: #ff2600;
      }
    </style>
  </defs>
  <g id="Tempo_Faster_Pressed_Hot" data-name="Tempo Faster Pressed Hot">
    <g id="Background">
      <rect class="cls-1" width="100" height="100"/>
    </g>
    <path class="cls-2" d="M51.34,68.53c1.28,0,2.48-.61,4.89-.61s3.13.61,4.95.61c2.7,0,4.19-1.13,4.19-3.09,0-3.21-3.35-5.55-8.92-5.55-2.79,0-4,.34-5.6.7l-2.04-4.58c-2.01-4.41-5.39-7.08-9.8-7.08h-2.19c-.79,0-1.31-.36-1.31-1.12,0-1.23,1.59-1.53,3.33-1.53,5.49,0,9.7,2.94,12.24,8.97l1.25,2.95c1.23-.25,2.57-.37,3.92-.37,1.08,0,2.1.07,3.16.26,1.14-.76,2.42-1.56,4.11-2.32,2.09,1.39,4.42,2.44,7.25,2.44,4.79,0,7.11-1.23,7.11-6.07,0-5.81-4.13-10.38-10-10.28l-4.73-6.5c-2.67-3.67-6.07-5.36-9.37-5.36-2.69,0-6.92,1.53-6.92,3.68,0,1.44,3,3.51,5.31,4.96l10.45,6.53c-.82.76-1.52,1.2-2.51,1.2-1.47,0-3.05-.95-5.19-2.17-5.74-3.41-9.95-6.43-15.98-6.43s-10.86,3.43-13.35,10.46c-1.98-.03-3.47,1.25-3.47,3.13,0,2.11,1.68,3.44,4.01,3.43,2.72,4.03,6.96,5.58,12.33,5.58.29,0,.59-.02.88-.02l7.49,6.24c1.85,1.64,3.08,1.94,4.52,1.94ZM37.68,70c3.47,0,5.64-.65,7.42-1.85l-5.64-4.72c-.26.02-.56.05-.94.05-.9,0-2.36-.28-3.95-.28-2.04,0-3.3,1.09-3.3,2.73,0,2.45,2.51,4.07,6.41,4.07ZM69.99,51.36c-.88,0-1.6-.75-1.6-1.62s.73-1.67,1.62-1.67,1.62.71,1.62,1.6-.73,1.7-1.64,1.7Z"/>
  </g>
</svg>