<?xml version="1.0" encoding="UTF-8"?>
<svg id="Play" xmlns="http://www.w3.org/2000/svg" viewBox="0 0 100 100">
  <defs>
    <style>
      .cls-1 {
        fill: #0096ff;
      }
    </style>
  </defs>
  <g id="Hotcue_4_Cuepoint_Cold" data-name="Hotcue 4 Cuepoint Cold">
    <g id="Background">
      <rect width="100" height="100"/>
    </g>
    <path class="cls-1" d="M80,30.44v39.15c0,6.87-3.58,10.41-10.54,10.41H30.54c-6.94,0-10.54-3.55-10.54-10.41V30.44c0-6.86,3.61-10.44,10.54-10.44h38.91c6.96,0,10.54,3.58,10.54,10.44ZM46.68,37.59c-3.21,4.87-6.92,10.48-9.38,14.61-.71,1.29-.95,2.25-.95,3.35,0,2.24,1.55,3.7,3.97,3.7h11.31v2.82c0,2,1.09,3.15,2.82,3.15s2.88-1.13,2.88-3.15v-2.82h2.13c1.59,0,2.65-1,2.65-2.51s-1.02-2.57-2.64-2.57h-2.14v-15.85c0-2.42-1.96-4.11-4.71-4.11s-4.43.96-5.95,3.39ZM51.63,54.16h-9.57v-.2c2.31-4.04,6.15-9.97,9.33-14.9h.24v15.1Z"/>
  </g>
</svg>