<?xml version="1.0" encoding="UTF-8"?>
<svg id="Play" xmlns="http://www.w3.org/2000/svg" viewBox="0 0 100 100">
  <defs>
    <style>
      .cls-1 {
        fill: #fff;
      }
    </style>
  </defs>
  <g id="Hotcue_1_Unassigned_Cold" data-name="Hotcue 1 Unassigned Cold">
    <g id="Background">
      <rect width="100" height="100"/>
    </g>
    <g>
      <path class="cls-1" d="M29.77,80h40.45c6.5,0,9.78-3.29,9.78-9.66V29.69c0-6.37-3.28-9.69-9.78-9.69H29.77c-6.46,0-9.77,3.28-9.77,9.69v40.65c0,6.41,3.3,9.66,9.77,9.66ZM29.84,75.91c-3.73,0-5.74-1.97-5.74-5.8V29.91c0-3.83,2.01-5.81,5.74-5.81h40.31c3.66,0,5.74,1.98,5.74,5.81v40.2c0,3.83-2.08,5.8-5.74,5.8H29.84Z"/>
      <path class="cls-1" d="M51.6,65.51c1.31,0,2.08-.88,2.08-2.27v-26.47c0-1.47-.83-2.29-2.22-2.29-.95,0-1.64.26-2.76,1.03l-6.37,4.24c-.6.39-.84.83-.84,1.5,0,.83.68,1.6,1.54,1.6.38,0,.67-.08,1.21-.43l5.13-3.34h.21v24.18c0,1.39.76,2.27,2.02,2.27Z"/>
    </g>
  </g>
</svg>