<?xml version="1.0" encoding="UTF-8"?>
<svg id="Play" xmlns="http://www.w3.org/2000/svg" viewBox="0 0 100 100">
  <defs>
    <style>
      .cls-1 {
        fill: #941100;
      }

      .cls-2 {
        fill: #fff;
      }
    </style>
  </defs>
  <g id="Loop_Control_16_Inactive_Hot" data-name="Loop Control 16 Inactive Hot">
    <g id="Background">
      <rect class="cls-1" width="100" height="100"/>
    </g>
    <g>
      <path class="cls-2" d="M24.38,64.8h6.53v-27.11l-7.52,4.37v-5.42l9.63-5.92h3.93v34.08h6.47v4.65h-19.03v-4.65Z"/>
      <path class="cls-2" d="M56.78,68.14c-2.01-1.23-3.56-2.97-4.65-5.2-1.09-2.23-1.63-4.8-1.63-7.72,0-4.09,1-7.97,3.02-11.65,2.01-3.67,4.76-6.72,8.24-9.15,3.48-2.44,7.31-3.91,11.48-4.43l.55,4.59c-3.32.7-6.34,2.09-9.07,4.17-2.73,2.08-4.7,4.6-5.92,7.56.52-.55,1.27-1.03,2.24-1.41s2.04-.58,3.18-.58c2.58,0,4.8.54,6.66,1.63,1.86,1.09,3.28,2.61,4.26,4.57.98,1.95,1.47,4.18,1.47,6.69s-.53,4.68-1.58,6.61c-1.05,1.94-2.54,3.45-4.45,4.53-1.92,1.09-4.17,1.63-6.75,1.63s-5.05-.62-7.06-1.86ZM68.81,62.92c1.26-1.44,1.88-3.35,1.88-5.75s-.63-4.31-1.88-5.75c-1.25-1.44-2.93-2.16-5.03-2.16s-3.79.72-5.06,2.16c-1.27,1.44-1.91,3.36-1.91,5.75s.63,4.32,1.91,5.75c1.27,1.44,2.96,2.16,5.06,2.16s3.78-.72,5.03-2.16Z"/>
    </g>
  </g>
</svg>