<?xml version="1.0" encoding="UTF-8"?>
<svg id="Play" xmlns="http://www.w3.org/2000/svg" viewBox="0 0 100 100">
  <defs>
    <style>
      .cls-1 {
        fill: #fffc79;
      }

      .cls-2 {
        fill: #ff2600;
      }

      .cls-3 {
        fill: #941100;
      }
    </style>
  </defs>
  <g id="Hotcue_2_Loop_Hot" data-name="Hotcue 2 Loop Hot">
    <g id="Background">
      <rect class="cls-3" width="100" height="100"/>
    </g>
    <path class="cls-1" d="M80,30.44v39.15c0,6.87-3.58,10.41-10.54,10.41H30.54c-6.94,0-10.54-3.55-10.54-10.41V30.44c0-6.86,3.61-10.44,10.54-10.44h38.91c6.96,0,10.54,3.58,10.54,10.44Z"/>
    <path class="cls-2" d="M39.84,40.76c-.17.54-.23,1-.23,1.49,0,1.55,1.06,2.48,2.68,2.48,1.38,0,2.05-.8,2.68-1.76.86-1.81,2.43-3.73,5.29-3.73s4.67,1.62,4.67,4.05c0,2.2-1.83,4.08-3.88,6.14l-10.14,10.52c-.84.83-1.17,1.65-1.17,2.49,0,1.56,1.09,2.56,2.79,2.56h16.94c1.65,0,2.77-.99,2.77-2.6s-1.1-2.59-2.77-2.59h-10.88v-.24l7.04-7.41c3.16-3.16,5.17-5.81,5.17-9.4,0-5.12-4.23-8.57-10.61-8.57-4.93,0-9.19,2.81-10.36,6.56Z"/>
  </g>
</svg>